<svg width="1920" height="663" viewBox="0 0 1920 663" fill="none" xmlns="http://www.w3.org/2000/svg">
<path d="M827.383 142.444C827.383 144.156 825.997 145.546 824.276 145.546C822.574 145.546 821.187 144.156 821.187 142.444C821.187 140.729 822.574 139.342 824.276 139.342C825.997 139.342 827.383 140.729 827.383 142.444Z" fill="#FFF84D" fill-opacity="0.2"/>
<path d="M558.563 147.508C558.563 148.365 557.868 149.059 557.012 149.059C556.157 149.059 555.462 148.365 555.462 147.508C555.462 146.65 556.157 145.956 557.012 145.956C557.868 145.956 558.563 146.65 558.563 147.508Z" fill="#FFF84D" fill-opacity="0.2"/>
<path d="M332.272 287.34C332.272 288.197 331.578 288.891 330.722 288.891C329.867 288.891 329.172 288.197 329.172 287.34C329.172 286.483 329.867 285.789 330.722 285.789C331.578 285.789 332.272 286.483 332.272 287.34Z" fill="#FFF84D" fill-opacity="0.2"/>
<path d="M544.053 234.991C544.053 235.846 543.359 236.54 542.503 236.54C541.646 236.54 540.953 235.846 540.953 234.991C540.953 234.134 541.646 233.438 542.503 233.438C543.359 233.438 544.053 234.134 544.053 234.991Z" fill="#FFF84D" fill-opacity="0.2"/>
<path d="M591.138 338.225C591.138 339.083 590.443 339.776 589.589 339.776C588.732 339.776 588.039 339.083 588.039 338.225C588.039 337.368 588.732 336.674 589.589 336.674C590.443 336.674 591.138 337.368 591.138 338.225Z" fill="#FFF84D" fill-opacity="0.2"/>
<path d="M479.693 329.846C479.693 330.702 478.998 331.396 478.143 331.396C477.287 331.396 476.592 330.702 476.592 329.846C476.592 328.989 477.287 328.293 478.143 328.293C478.998 328.293 479.693 328.989 479.693 329.846Z" fill="#FFF84D" fill-opacity="0.2"/>
<path d="M339.295 152.689C339.295 153.545 338.602 154.24 337.745 154.24C336.89 154.24 336.195 153.545 336.195 152.689C336.195 151.832 336.89 151.138 337.745 151.138C338.602 151.138 339.295 151.832 339.295 152.689Z" fill="#FFF84D" fill-opacity="0.2"/>
<path d="M499.453 382.79C499.453 383.645 498.76 384.341 497.903 384.341C497.047 384.341 496.354 383.645 496.354 382.79C496.354 381.933 497.047 381.239 497.903 381.239C498.76 381.239 499.453 381.933 499.453 382.79Z" fill="#FFF84D" fill-opacity="0.2"/>
<path d="M510.664 348.102C510.664 348.578 510.28 348.961 509.806 348.961C509.331 348.961 508.946 348.578 508.946 348.102C508.946 347.628 509.331 347.243 509.806 347.243C510.28 347.243 510.664 347.628 510.664 348.102Z" fill="#FFF84D" fill-opacity="0.2"/>
<path d="M557.851 319.512C557.851 319.988 557.467 320.371 556.994 320.371C556.52 320.371 556.134 319.988 556.134 319.512C556.134 319.038 556.52 318.653 556.994 318.653C557.467 318.653 557.851 319.038 557.851 319.512Z" fill="#FFF84D" fill-opacity="0.2"/>
<path d="M647.245 252.81C647.245 253.284 646.859 253.668 646.386 253.668C645.912 253.668 645.528 253.284 645.528 252.81C645.528 252.335 645.912 251.949 646.386 251.949C646.859 251.949 647.245 252.335 647.245 252.81Z" fill="#FFF84D" fill-opacity="0.2"/>
<path d="M538.338 338.669C538.338 339.144 537.952 339.528 537.478 339.528C537.005 339.528 536.621 339.144 536.621 338.669C536.621 338.193 537.005 337.81 537.478 337.81C537.952 337.81 538.338 338.193 538.338 338.669Z" fill="#FFF84D" fill-opacity="0.2"/>
<path d="M552.937 375.282C552.937 375.756 552.553 376.143 552.079 376.143C551.606 376.143 551.221 375.756 551.221 375.282C551.221 374.808 551.606 374.423 552.079 374.423C552.553 374.423 552.937 374.808 552.937 375.282Z" fill="#FFF84D" fill-opacity="0.2"/>
<path d="M609.735 375.069C609.735 375.544 609.352 375.928 608.877 375.928C608.403 375.928 608.019 375.544 608.019 375.069C608.019 374.595 608.403 374.209 608.877 374.209C609.352 374.209 609.735 374.595 609.735 375.069Z" fill="#FFF84D" fill-opacity="0.2"/>
<path d="M729.771 333.243C729.771 333.717 729.385 334.102 728.911 334.102C728.437 334.102 728.051 333.717 728.051 333.243C728.051 332.769 728.437 332.384 728.911 332.384C729.385 332.384 729.771 332.769 729.771 333.243Z" fill="#FFF84D" fill-opacity="0.2"/>
<path d="M527.63 353.493C527.63 353.967 527.245 354.352 526.77 354.352C526.296 354.352 525.912 353.967 525.912 353.493C525.912 353.017 526.296 352.632 526.77 352.632C527.245 352.632 527.63 353.017 527.63 353.493Z" fill="#FFF84D" fill-opacity="0.2"/>
<path d="M612.953 421.185C612.953 421.66 612.567 422.044 612.093 422.044C611.619 422.044 611.233 421.66 611.233 421.185C611.233 420.711 611.619 420.326 612.093 420.326C612.567 420.326 612.953 420.711 612.953 421.185Z" fill="#FFF84D" fill-opacity="0.2"/>
<path d="M527.983 328.602C528.448 328.695 528.749 329.148 528.658 329.614C528.565 330.078 528.112 330.381 527.648 330.288C527.183 330.195 526.881 329.742 526.974 329.277C527.067 328.811 527.519 328.509 527.983 328.602Z" fill="#FFF84D" fill-opacity="0.2"/>
<path d="M506.063 454.602C506.063 455.079 505.679 455.461 505.205 455.461C504.732 455.461 504.346 455.079 504.346 454.602C504.346 454.128 504.732 453.743 505.205 453.743C505.679 453.743 506.063 454.128 506.063 454.602Z" fill="#FFF84D" fill-opacity="0.2"/>
<path d="M476.223 256.108C476.223 256.582 475.839 256.967 475.366 256.967C474.892 256.967 474.506 256.582 474.506 256.108C474.506 255.634 474.892 255.249 475.366 255.249C475.839 255.249 476.223 255.634 476.223 256.108Z" fill="#FFF84D" fill-opacity="0.2"/>
<path d="M531.291 276.616C531.291 277.09 530.907 277.475 530.433 277.475C529.96 277.475 529.575 277.09 529.575 276.616C529.575 276.14 529.96 275.757 530.433 275.757C530.907 275.757 531.291 276.14 531.291 276.616Z" fill="#FFF84D" fill-opacity="0.2"/>
<path d="M415.763 272.113C415.763 272.587 415.379 272.974 414.905 272.974C414.431 272.974 414.047 272.587 414.047 272.113C414.047 271.639 414.431 271.254 414.905 271.254C415.379 271.254 415.763 271.639 415.763 272.113Z" fill="#FFF84D" fill-opacity="0.2"/>
<path d="M333.458 448.209C333.458 448.685 333.074 449.069 332.6 449.069C332.126 449.069 331.74 448.685 331.74 448.209C331.74 447.736 332.126 447.35 332.6 447.35C333.074 447.35 333.458 447.736 333.458 448.209Z" fill="#FFF84D" fill-opacity="0.2"/>
<path d="M397.332 442.848C397.332 443.322 396.948 443.707 396.474 443.707C395.999 443.707 395.614 443.322 395.614 442.848C395.614 442.373 395.999 441.989 396.474 441.989C396.948 441.989 397.332 442.373 397.332 442.848Z" fill="#FFF84D" fill-opacity="0.2"/>
<path d="M439.495 384.885C439.495 385.741 438.802 386.437 437.945 386.437C437.091 386.437 436.396 385.741 436.396 384.885C436.396 384.028 437.091 383.334 437.945 383.334C438.802 383.334 439.495 384.028 439.495 384.885Z" fill="#FFF84D" fill-opacity="0.2"/>
<path d="M408.953 511.007C408.953 511.864 408.26 512.558 407.403 512.558C406.549 512.558 405.854 511.864 405.854 511.007C405.854 510.149 406.549 509.456 407.403 509.456C408.26 509.456 408.953 510.149 408.953 511.007Z" fill="#FFF84D" fill-opacity="0.2"/>
<path d="M1097.58 83.1039C1097.58 84.8166 1096.19 86.2061 1094.47 86.2061C1092.77 86.2061 1091.38 84.8166 1091.38 83.1039C1091.38 81.3895 1092.77 80 1094.47 80C1096.19 80 1097.58 81.3895 1097.58 83.1039Z" fill="#FFF84D" fill-opacity="0.2"/>
<path d="M813.446 136.386C813.446 137.242 812.762 137.938 811.902 137.938C811.041 137.938 810.357 137.242 810.357 136.386C810.357 135.529 811.041 134.835 811.902 134.835C812.762 134.835 813.446 135.529 813.446 136.386Z" fill="#FFF84D" fill-opacity="0.2"/>
<path d="M767.632 234.683C767.632 235.157 767.246 235.542 766.773 235.542C766.299 235.542 765.913 235.157 765.913 234.683C765.913 234.207 766.299 233.822 766.773 233.822C767.246 233.822 767.632 234.207 767.632 234.683Z" fill="#FFF84D" fill-opacity="0.2"/>
<path d="M891.608 126.054C891.608 126.528 891.223 126.913 890.749 126.913C890.275 126.913 889.889 126.528 889.889 126.054C889.889 125.578 890.275 125.195 890.749 125.195C891.223 125.195 891.608 125.578 891.608 126.054Z" fill="#FFF84D" fill-opacity="0.2"/>
<path d="M872.089 145.21C872.089 145.686 871.704 146.069 871.23 146.069C870.756 146.069 870.37 145.686 870.37 145.21C870.37 144.736 870.756 144.351 871.23 144.351C871.704 144.351 872.089 144.736 872.089 145.21Z" fill="#FFF84D" fill-opacity="0.2"/>
<path d="M861.382 160.033C861.382 160.509 860.996 160.894 860.522 160.894C860.049 160.894 859.663 160.509 859.663 160.033C859.663 159.559 860.049 159.174 860.522 159.174C860.996 159.174 861.382 159.559 861.382 160.033Z" fill="#FFF84D" fill-opacity="0.2"/>
<path d="M640.35 145.956C640.35 146.431 639.966 146.815 639.493 146.815C639.019 146.815 638.633 146.431 638.633 145.956C638.633 145.482 639.019 145.097 639.493 145.097C639.966 145.097 640.35 145.482 640.35 145.956Z" fill="#FFF84D" fill-opacity="0.2"/>
<path d="M773.25 191.426C773.25 192.283 772.565 192.977 771.705 192.977C770.845 192.977 770.161 192.283 770.161 191.426C770.161 190.569 770.845 189.875 771.705 189.875C772.565 189.875 773.25 190.569 773.25 191.426Z" fill="#FFF84D" fill-opacity="0.2"/>
<path d="M783.133 393.786C783.133 395.501 781.746 396.89 780.026 396.89C778.323 396.89 776.919 395.501 776.919 393.786C776.919 392.074 778.323 390.684 780.026 390.684C781.746 390.684 783.133 392.074 783.133 393.786Z" fill="#FFF84D" fill-opacity="0.2"/>
<path d="M709.708 406.877C709.708 408.59 708.322 409.979 706.619 409.979C704.899 409.979 703.512 408.59 703.512 406.877C703.512 405.163 704.899 403.775 706.619 403.775C708.322 403.775 709.708 405.163 709.708 406.877Z" fill="#FFF84D" fill-opacity="0.2"/>
<path d="M596.506 532.405C596.506 534.12 595.119 535.509 593.406 535.509C591.695 535.509 590.306 534.12 590.306 532.405C590.306 530.691 591.695 529.301 593.406 529.301C595.119 529.301 596.506 530.691 596.506 532.405Z" fill="#FFF84D" fill-opacity="0.2"/>
<path d="M1004.95 226.733C1004.95 228.446 1003.56 229.835 1001.86 229.835C1000.14 229.835 998.752 228.446 998.752 226.733C998.752 225.018 1000.14 223.631 1001.86 223.631C1003.56 223.631 1004.95 225.018 1004.95 226.733Z" fill="#FFF84D" fill-opacity="0.2"/>
<path d="M1211.69 142.444C1211.69 144.156 1210.3 145.546 1208.6 145.546C1206.88 145.546 1205.49 144.156 1205.49 142.444C1205.49 140.729 1206.88 139.342 1208.6 139.342C1210.3 139.342 1211.69 140.729 1211.69 142.444Z" fill="#FFF84D" fill-opacity="0.2"/>
<path d="M975.441 136.967C975.441 137.825 974.757 138.519 973.897 138.519C973.037 138.519 972.352 137.825 972.352 136.967C972.352 136.11 973.037 135.416 973.897 135.416C974.757 135.416 975.441 136.11 975.441 136.967Z" fill="#FFF84D" fill-opacity="0.2"/>
<path d="M716.572 287.34C716.572 288.197 715.887 288.891 715.027 288.891C714.167 288.891 713.482 288.197 713.482 287.34C713.482 286.483 714.167 285.789 715.027 285.789C715.887 285.789 716.572 286.483 716.572 287.34Z" fill="#FFF84D" fill-opacity="0.2"/>
<path d="M871.88 203.924C871.88 204.781 871.195 205.475 870.335 205.475C869.475 205.475 868.791 204.781 868.791 203.924C868.791 203.066 869.475 202.372 870.335 202.372C871.195 202.372 871.88 203.066 871.88 203.924Z" fill="#FFF84D" fill-opacity="0.2"/>
<path d="M1073.74 249.389C1073.74 250.247 1073.05 250.94 1072.19 250.94C1071.33 250.94 1070.65 250.247 1070.65 249.389C1070.65 248.534 1071.33 247.838 1072.19 247.838C1073.05 247.838 1073.74 248.534 1073.74 249.389Z" fill="#FFF84D" fill-opacity="0.2"/>
<path d="M863.999 329.846C863.999 330.702 863.314 331.396 862.454 331.396C861.594 331.396 860.892 330.702 860.892 329.846C860.892 328.989 861.594 328.293 862.454 328.293C863.314 328.293 863.999 328.989 863.999 329.846Z" fill="#FFF84D" fill-opacity="0.2"/>
<path d="M723.611 152.689C723.611 153.545 722.909 154.24 722.049 154.24C721.188 154.24 720.504 153.545 720.504 152.689C720.504 151.832 721.188 151.138 722.049 151.138C722.909 151.138 723.611 151.832 723.611 152.689Z" fill="#FFF84D" fill-opacity="0.2"/>
<path d="M849.342 373.557C849.342 374.414 848.64 375.108 847.779 375.108C846.937 375.108 846.235 374.414 846.235 373.557C846.235 372.7 846.937 372.006 847.779 372.006C848.64 372.006 849.342 372.7 849.342 373.557Z" fill="#FFF84D" fill-opacity="0.2"/>
<path d="M894.979 348.102C894.979 348.578 894.593 348.961 894.119 348.961C893.646 348.961 893.26 348.578 893.26 348.102C893.26 347.628 893.646 347.243 894.119 347.243C894.593 347.243 894.979 347.628 894.979 348.102Z" fill="#FFF84D" fill-opacity="0.2"/>
<path d="M942.16 319.512C942.16 319.988 941.774 320.371 941.301 320.371C940.827 320.371 940.441 319.988 940.441 319.512C940.441 319.038 940.827 318.653 941.301 318.653C941.774 318.653 942.16 319.038 942.16 319.512Z" fill="#FFF84D" fill-opacity="0.2"/>
<path d="M1031.56 252.81C1031.56 253.284 1031.17 253.668 1030.7 253.668C1030.22 253.668 1029.84 253.284 1029.84 252.81C1029.84 252.335 1030.22 251.949 1030.7 251.949C1031.17 251.949 1031.56 252.335 1031.56 252.81Z" fill="#FFF84D" fill-opacity="0.2"/>
<path d="M1016.02 202.167C1016.02 202.641 1015.64 203.026 1015.16 203.026C1014.69 203.026 1014.3 202.641 1014.3 202.167C1014.3 201.693 1014.69 201.308 1015.16 201.308C1015.64 201.308 1016.02 201.693 1016.02 202.167Z" fill="#FFF84D" fill-opacity="0.2"/>
<path d="M937.246 375.282C937.246 375.756 936.86 376.143 936.387 376.143C935.913 376.143 935.527 375.756 935.527 375.282C935.527 374.808 935.913 374.423 936.387 374.423C936.86 374.423 937.246 374.808 937.246 375.282Z" fill="#FFF84D" fill-opacity="0.2"/>
<path d="M1116.94 183.704C1116.94 184.18 1116.55 184.564 1116.08 184.564C1115.6 184.564 1115.22 184.18 1115.22 183.704C1115.22 183.229 1115.6 182.845 1116.08 182.845C1116.55 182.845 1116.94 183.229 1116.94 183.704Z" fill="#FFF84D" fill-opacity="0.2"/>
<path d="M1114.07 333.244C1114.07 333.718 1113.69 334.103 1113.21 334.103C1112.74 334.103 1112.35 333.718 1112.35 333.244C1112.35 332.769 1112.74 332.385 1113.21 332.385C1113.69 332.385 1114.07 332.769 1114.07 333.244Z" fill="#FFF84D" fill-opacity="0.2"/>
<path d="M837.053 485.059C837.053 485.532 836.685 485.918 836.211 485.918C835.738 485.918 835.352 485.532 835.352 485.059C835.352 484.583 835.738 484.201 836.211 484.201C836.685 484.201 837.053 484.583 837.053 485.059Z" fill="#FFF84D" fill-opacity="0.2"/>
<path d="M942.354 433.425C942.354 433.901 941.968 434.286 941.494 434.286C941.02 434.286 940.634 433.901 940.634 433.425C940.634 432.951 941.02 432.566 941.494 432.566C941.968 432.566 942.354 432.951 942.354 433.425Z" fill="#FFF84D" fill-opacity="0.2"/>
<path d="M997.259 421.185C997.259 421.66 996.873 422.044 996.4 422.044C995.926 422.044 995.54 421.66 995.54 421.185C995.54 420.711 995.926 420.326 996.4 420.326C996.873 420.326 997.259 420.711 997.259 421.185Z" fill="#FFF84D" fill-opacity="0.2"/>
<path d="M1023.04 407.737C1023.04 408.211 1022.66 408.598 1022.18 408.598C1021.71 408.598 1021.33 408.211 1021.33 407.737C1021.33 407.263 1021.71 406.878 1022.18 406.878C1022.66 406.878 1023.04 407.263 1023.04 407.737Z" fill="#FFF84D" fill-opacity="0.2"/>
<path d="M1018.15 391.374C1018.15 391.849 1017.76 392.233 1017.29 392.233C1016.81 392.233 1016.43 391.849 1016.43 391.374C1016.43 390.9 1016.81 390.515 1017.29 390.515C1017.76 390.515 1018.15 390.9 1018.15 391.374Z" fill="#FFF84D" fill-opacity="0.2"/>
<path d="M912.286 328.602C912.76 328.695 913.058 329.148 912.971 329.614C912.865 330.078 912.427 330.381 911.953 330.288C911.497 330.195 911.181 329.742 911.286 329.277C911.374 328.811 911.83 328.509 912.286 328.602Z" fill="#FFF84D" fill-opacity="0.2"/>
<path d="M826.54 496.651C826.54 497.124 826.154 497.51 825.681 497.51C825.207 497.51 824.821 497.124 824.821 496.651C824.821 496.175 825.207 495.791 825.681 495.791C826.154 495.791 826.54 496.175 826.54 496.651Z" fill="#FFF84D" fill-opacity="0.2"/>
<path d="M860.522 256.108C860.522 256.582 860.153 256.967 859.68 256.967C859.206 256.967 858.82 256.582 858.82 256.108C858.82 255.634 859.206 255.249 859.68 255.249C860.153 255.249 860.522 255.634 860.522 256.108Z" fill="#FFF84D" fill-opacity="0.2"/>
<path d="M915.603 276.616C915.603 277.09 915.217 277.475 914.743 277.475C914.27 277.475 913.884 277.09 913.884 276.616C913.884 276.14 914.27 275.757 914.743 275.757C915.217 275.757 915.603 276.14 915.603 276.616Z" fill="#FFF84D" fill-opacity="0.2"/>
<path d="M1391.15 191.074C1391.15 191.548 1390.78 191.933 1390.29 191.933C1389.81 191.933 1389.44 191.548 1389.44 191.074C1389.44 190.598 1389.81 190.213 1390.29 190.213C1390.78 190.213 1391.15 190.598 1391.15 191.074Z" fill="#FFF84D" fill-opacity="0.2"/>
<path d="M1438.35 162.484C1438.35 162.958 1437.96 163.343 1437.49 163.343C1437.01 163.343 1436.63 162.958 1436.63 162.484C1436.63 162.01 1437.01 161.625 1437.49 161.625C1437.96 161.625 1438.35 162.01 1438.35 162.484Z" fill="#FFF84D" fill-opacity="0.2"/>
<path d="M1433.43 218.254C1433.43 218.728 1433.05 219.113 1432.57 219.113C1432.1 219.113 1431.71 218.728 1431.71 218.254C1431.71 217.778 1432.1 217.393 1432.57 217.393C1433.05 217.393 1433.43 217.778 1433.43 218.254Z" fill="#FFF84D" fill-opacity="0.2"/>
<path d="M1408.47 171.574C1408.95 171.666 1409.24 172.119 1409.16 172.585C1409.05 173.05 1408.59 173.352 1408.14 173.259C1407.66 173.166 1407.37 172.713 1407.47 172.249C1407.56 171.783 1408.02 171.481 1408.47 171.574Z" fill="#FFF84D" fill-opacity="0.2"/>
<path d="M1411.79 119.587C1411.79 120.061 1411.4 120.446 1410.93 120.446C1410.46 120.446 1410.07 120.061 1410.07 119.587C1410.07 119.113 1410.46 118.728 1410.93 118.728C1411.4 118.728 1411.79 119.113 1411.79 119.587Z" fill="#FFF84D" fill-opacity="0.2"/>
<path d="M800.07 272.112C800.07 272.587 799.684 272.973 799.21 272.973C798.737 272.973 798.351 272.587 798.351 272.112C798.351 271.638 798.737 271.253 799.21 271.253C799.684 271.253 800.07 271.638 800.07 272.112Z" fill="#FFF84D" fill-opacity="0.2"/>
<path d="M1413.77 230.652C1413.47 232.338 1411.88 233.466 1410.19 233.171C1408.51 232.874 1407.38 231.265 1407.66 229.579C1407.96 227.891 1409.58 226.763 1411.26 227.06C1412.95 227.355 1414.07 228.964 1413.77 230.652Z" fill="#FFF84D" fill-opacity="0.2"/>
<path d="M1428.1 166.624C1428.1 168.339 1426.71 169.727 1425.01 169.727C1423.29 169.727 1421.9 168.339 1421.9 166.624C1421.9 164.912 1423.29 163.522 1425.01 163.522C1426.71 163.522 1428.1 164.912 1428.1 166.624Z" fill="#FFF84D" fill-opacity="0.2"/>
<path d="M1521.34 168.587C1521.34 169.444 1520.65 170.138 1519.79 170.138C1518.93 170.138 1518.25 169.444 1518.25 168.587C1518.25 167.729 1518.93 167.036 1519.79 167.036C1520.65 167.036 1521.34 167.729 1521.34 168.587Z" fill="#FFF84D" fill-opacity="0.2"/>
<path d="M1481.83 244.467C1481.83 245.322 1481.14 246.018 1480.28 246.018C1479.42 246.018 1478.74 245.322 1478.74 244.467C1478.74 243.61 1479.42 242.916 1480.28 242.916C1481.14 242.916 1481.83 243.61 1481.83 244.467Z" fill="#FFF84D" fill-opacity="0.2"/>
<path d="M1552.32 186.844C1552.32 187.318 1551.93 187.703 1551.46 187.703C1550.98 187.703 1550.6 187.318 1550.6 186.844C1550.6 186.37 1550.98 185.985 1551.46 185.985C1551.93 185.985 1552.32 186.37 1552.32 186.844Z" fill="#FFF84D" fill-opacity="0.2"/>
<path d="M1569.63 167.344C1570.1 167.438 1570.4 167.889 1570.31 168.356C1570.2 168.82 1569.77 169.124 1569.29 169.029C1568.84 168.936 1568.52 168.484 1568.63 168.019C1568.71 167.554 1569.17 167.251 1569.63 167.344Z" fill="#FFF84D" fill-opacity="0.2"/>
<path d="M1517.88 94.85C1517.88 95.3243 1517.49 95.709 1517.02 95.709C1516.55 95.709 1516.16 95.3243 1516.16 94.85C1516.16 94.374 1516.55 93.9893 1517.02 93.9893C1517.49 93.9893 1517.88 94.374 1517.88 94.85Z" fill="#FFF84D" fill-opacity="0.2"/>
<path d="M1572.94 115.356C1572.94 115.831 1572.56 116.217 1572.08 116.217C1571.61 116.217 1571.22 115.831 1571.22 115.356C1571.22 114.882 1571.61 114.498 1572.08 114.498C1572.56 114.498 1572.94 114.882 1572.94 115.356Z" fill="#FFF84D" fill-opacity="0.2"/>
<path d="M1457.41 110.854C1457.41 111.328 1457.02 111.713 1456.55 111.713C1456.08 111.713 1455.69 111.328 1455.69 110.854C1455.69 110.378 1456.08 109.995 1456.55 109.995C1457.02 109.995 1457.41 110.378 1457.41 110.854Z" fill="#FFF84D" fill-opacity="0.2"/>
<path d="M717.765 448.209C717.765 448.685 717.379 449.069 716.905 449.069C716.431 449.069 716.045 448.685 716.045 448.209C716.045 447.736 716.431 447.35 716.905 447.35C717.379 447.35 717.765 447.736 717.765 448.209Z" fill="#FFF84D" fill-opacity="0.2"/>
<path d="M781.64 442.848C781.64 443.322 781.254 443.707 780.78 443.707C780.306 443.707 779.92 443.322 779.92 442.848C779.92 442.373 780.306 441.989 780.78 441.989C781.254 441.989 781.64 442.373 781.64 442.848Z" fill="#FFF84D" fill-opacity="0.2"/>
<path d="M680.557 414.919C680.557 415.775 679.862 416.47 679.006 416.47C678.151 416.47 677.456 415.775 677.456 414.919C677.456 414.062 678.151 413.368 679.006 413.368C679.862 413.368 680.557 414.062 680.557 414.919Z" fill="#FFF84D" fill-opacity="0.2"/>
<path d="M741.777 528.892C741.777 529.748 741.093 530.443 740.233 530.443C739.373 530.443 738.688 529.748 738.688 528.892C738.688 528.037 739.373 527.341 740.233 527.341C741.093 527.341 741.777 528.037 741.777 528.892Z" fill="#FFF84D" fill-opacity="0.2"/>
<path d="M1420.41 343.783C1420.41 344.257 1420.02 344.642 1419.55 344.642C1419.07 344.642 1418.71 344.257 1418.71 343.783C1418.71 343.308 1419.07 342.924 1419.55 342.924C1420.02 342.924 1420.41 343.308 1420.41 343.783Z" fill="#FFF84D" fill-opacity="0.2"/>
<path d="M1437.29 402.418C1437.29 404.132 1435.91 405.52 1434.19 405.52C1432.48 405.52 1431.1 404.132 1431.1 402.418C1431.1 400.703 1432.48 399.316 1434.19 399.316C1435.91 399.316 1437.29 400.703 1437.29 402.418Z" fill="#FFF84D" fill-opacity="0.2"/>
<path d="M1554.65 340.385C1554.65 341.241 1553.95 341.935 1553.09 341.935C1552.25 341.935 1551.55 341.241 1551.55 340.385C1551.55 339.528 1552.25 338.832 1553.09 338.832C1553.95 338.832 1554.65 339.528 1554.65 340.385Z" fill="#FFF84D" fill-opacity="0.2"/>
<path d="M1515.14 416.265C1515.14 417.122 1514.44 417.816 1513.6 417.816C1512.74 417.816 1512.03 417.122 1512.03 416.265C1512.03 415.409 1512.74 414.714 1513.6 414.714C1514.44 414.714 1515.14 415.409 1515.14 416.265Z" fill="#FFF84D" fill-opacity="0.2"/>
<path d="M1408.42 458.748C1408.42 459.224 1408.03 459.608 1407.56 459.608C1407.09 459.608 1406.7 459.224 1406.7 458.748C1406.7 458.275 1407.09 457.889 1407.56 457.889C1408.03 457.889 1408.42 458.275 1408.42 458.748Z" fill="#FFF84D" fill-opacity="0.2"/>
<path d="M1472.29 453.387C1472.29 453.861 1471.91 454.246 1471.43 454.246C1470.96 454.246 1470.58 453.861 1470.58 453.387C1470.58 452.912 1470.96 452.526 1471.43 452.526C1471.91 452.526 1472.29 452.912 1472.29 453.387Z" fill="#FFF84D" fill-opacity="0.2"/>
<path d="M1432.43 539.431C1432.43 540.287 1431.75 540.982 1430.89 540.982C1430.03 540.982 1429.34 540.287 1429.34 539.431C1429.34 538.576 1430.03 537.88 1430.89 537.88C1431.75 537.88 1432.43 538.576 1432.43 539.431Z" fill="#FFF84D" fill-opacity="0.2"/>
<path d="M1192.59 190.429C1192.59 191.287 1191.9 191.98 1191.04 191.98C1190.18 191.98 1189.5 191.287 1189.5 190.429C1189.5 189.572 1190.18 188.878 1191.04 188.878C1191.9 188.878 1192.59 189.572 1192.59 190.429Z" fill="#FFF84D" fill-opacity="0.2"/>
<path d="M1146.77 288.726C1146.77 289.2 1146.39 289.585 1145.92 289.585C1145.44 289.585 1145.06 289.2 1145.06 288.726C1145.06 288.252 1145.44 287.867 1145.92 287.867C1146.39 287.867 1146.77 288.252 1146.77 288.726Z" fill="#FFF84D" fill-opacity="0.2"/>
<path d="M1270.75 180.098C1270.75 180.572 1270.37 180.957 1269.89 180.957C1269.42 180.957 1269.03 180.572 1269.03 180.098C1269.03 179.623 1269.42 179.239 1269.89 179.239C1270.37 179.239 1270.75 179.623 1270.75 180.098Z" fill="#FFF84D" fill-opacity="0.2"/>
<path d="M1252.09 109.965C1252.09 110.44 1251.71 110.824 1251.23 110.824C1250.76 110.824 1250.37 110.44 1250.37 109.965C1250.37 109.489 1250.76 109.105 1251.23 109.105C1251.71 109.105 1252.09 109.489 1252.09 109.965Z" fill="#FFF84D" fill-opacity="0.2"/>
<path d="M1240.52 214.076C1240.52 214.552 1240.14 214.937 1239.66 214.937C1239.19 214.937 1238.81 214.552 1238.81 214.076C1238.81 213.602 1239.19 213.217 1239.66 213.217C1240.14 213.217 1240.52 213.602 1240.52 214.076Z" fill="#FFF84D" fill-opacity="0.2"/>
<path d="M1037.33 186.141C1036.88 186.212 1036.44 185.888 1036.37 185.419C1036.3 184.95 1036.61 184.511 1037.09 184.441C1037.56 184.371 1038 184.694 1038.07 185.163C1038.14 185.632 1037.81 186.071 1037.33 186.141Z" fill="#FFF84D" fill-opacity="0.2"/>
<path d="M1152.39 245.468C1152.39 246.326 1151.71 247.02 1150.85 247.02C1149.99 247.02 1149.3 246.326 1149.3 245.468C1149.3 244.613 1149.99 243.917 1150.85 243.917C1151.71 243.917 1152.39 244.613 1152.39 245.468Z" fill="#FFF84D" fill-opacity="0.2"/>
<path d="M1125.78 445.922C1125.78 447.634 1124.4 449.024 1122.68 449.024C1120.97 449.024 1119.59 447.634 1119.59 445.922C1119.59 444.209 1120.97 442.82 1122.68 442.82C1124.4 442.82 1125.78 444.209 1125.78 445.922Z" fill="#FFF84D" fill-opacity="0.2"/>
<path d="M880.428 479.985C880.428 481.698 879.041 483.087 877.321 483.087C875.618 483.087 874.231 481.698 874.231 479.985C874.231 478.273 875.618 476.883 877.321 476.883C879.041 476.883 880.428 478.273 880.428 479.985Z" fill="#FFF84D" fill-opacity="0.2"/>
<path d="M1005.49 490.33C1005.49 492.042 1004.11 493.432 1002.4 493.432C1000.68 493.432 999.297 492.042 999.297 490.33C999.297 488.615 1000.68 487.227 1002.4 487.227C1004.11 487.227 1005.49 488.615 1005.49 490.33Z" fill="#FFF84D" fill-opacity="0.2"/>
<path d="M878.268 538C878.268 539.713 876.882 541.102 875.162 541.102C873.459 541.102 872.072 539.713 872.072 538C872.072 536.285 873.459 534.898 875.162 534.898C876.882 534.898 878.268 536.285 878.268 538Z" fill="#FFF84D" fill-opacity="0.2"/>
<path d="M976.074 554.146C976.074 555.861 974.687 557.249 972.967 557.249C971.264 557.249 969.86 555.861 969.86 554.146C969.86 552.432 971.264 551.043 972.967 551.043C974.687 551.043 976.074 552.432 976.074 554.146Z" fill="#FFF84D" fill-opacity="0.2"/>
<path d="M824.171 428.15C824.171 429.863 822.785 431.252 821.082 431.252C819.362 431.252 817.975 429.863 817.975 428.15C817.975 426.435 819.362 425.048 821.082 425.048C822.785 425.048 824.171 426.435 824.171 428.15Z" fill="#FFF84D" fill-opacity="0.2"/>
<path d="M1384.09 280.776C1384.09 282.488 1382.7 283.878 1381 283.878C1379.28 283.878 1377.9 282.488 1377.9 280.776C1377.9 279.061 1379.28 277.674 1381 277.674C1382.7 277.674 1384.09 279.061 1384.09 280.776Z" fill="#FFF84D" fill-opacity="0.2"/>
<path d="M1590.83 196.486C1590.83 198.201 1589.44 199.588 1587.74 199.588C1586.02 199.588 1584.63 198.201 1584.63 196.486C1584.63 194.774 1586.02 193.384 1587.74 193.384C1589.44 193.384 1590.83 194.774 1590.83 196.486Z" fill="#FFF84D" fill-opacity="0.2"/>
<path d="M1354.59 191.011C1354.59 191.868 1353.9 192.562 1353.04 192.562C1352.18 192.562 1351.5 191.868 1351.5 191.011C1351.5 190.155 1352.18 189.46 1353.04 189.46C1353.9 189.46 1354.59 190.155 1354.59 191.011Z" fill="#FFF84D" fill-opacity="0.2"/>
<path d="M1095.71 341.383C1095.71 342.241 1095.03 342.935 1094.17 342.935C1093.31 342.935 1092.63 342.241 1092.63 341.383C1092.63 340.528 1093.31 339.832 1094.17 339.832C1095.03 339.832 1095.71 340.528 1095.71 341.383Z" fill="#FFF84D" fill-opacity="0.2"/>
<path d="M1328.26 101.836C1328.26 102.693 1327.57 103.387 1326.71 103.387C1325.85 103.387 1325.17 102.693 1325.17 101.836C1325.17 100.979 1325.85 100.285 1326.71 100.285C1327.57 100.285 1328.26 100.979 1328.26 101.836Z" fill="#FFF84D" fill-opacity="0.2"/>
<path d="M1452.88 303.432C1452.88 304.29 1452.2 304.983 1451.34 304.983C1450.48 304.983 1449.79 304.29 1449.79 303.432C1449.79 302.577 1450.48 301.881 1451.34 301.881C1452.2 301.881 1452.88 302.577 1452.88 303.432Z" fill="#FFF84D" fill-opacity="0.2"/>
<path d="M1280.65 261.891C1280.65 262.748 1279.97 263.442 1279.11 263.442C1278.25 263.442 1277.56 262.748 1277.56 261.891C1277.56 261.034 1278.25 260.34 1279.11 260.34C1279.97 260.34 1280.65 261.034 1280.65 261.891Z" fill="#FFF84D" fill-opacity="0.2"/>
<path d="M1102.75 206.732C1102.75 207.589 1102.05 208.283 1101.19 208.283C1100.33 208.283 1099.65 207.589 1099.65 206.732C1099.65 205.875 1100.33 205.181 1101.19 205.181C1102.05 205.181 1102.75 205.875 1102.75 206.732Z" fill="#FFF84D" fill-opacity="0.2"/>
<path d="M1203.63 459.769C1203.63 460.626 1202.95 461.32 1202.09 461.32C1201.23 461.32 1200.54 460.626 1200.54 459.769C1200.54 458.912 1201.23 458.219 1202.09 458.219C1202.95 458.219 1203.63 458.912 1203.63 459.769Z" fill="#FFF84D" fill-opacity="0.2"/>
<path d="M1274.12 402.145C1274.12 402.621 1273.74 403.004 1273.26 403.004C1272.79 403.004 1272.4 402.621 1272.4 402.145C1272.4 401.671 1272.79 401.286 1273.26 401.286C1273.74 401.286 1274.12 401.671 1274.12 402.145Z" fill="#FFF84D" fill-opacity="0.2"/>
<path d="M1321.3 373.555C1321.3 374.031 1320.92 374.416 1320.44 374.416C1319.97 374.416 1319.58 374.031 1319.58 373.555C1319.58 373.081 1319.97 372.696 1320.44 372.696C1320.92 372.696 1321.3 373.081 1321.3 373.555Z" fill="#FFF84D" fill-opacity="0.2"/>
<path d="M1410.7 306.852C1410.7 307.326 1410.31 307.711 1409.84 307.711C1409.37 307.711 1408.98 307.326 1408.98 306.852C1408.98 306.378 1409.37 305.991 1409.84 305.991C1410.31 305.991 1410.7 306.378 1410.7 306.852Z" fill="#FFF84D" fill-opacity="0.2"/>
<path d="M1377.42 263.967C1377.42 264.443 1377.05 264.828 1376.56 264.828C1376.09 264.828 1375.72 264.443 1375.72 263.967C1375.72 263.493 1376.09 263.108 1376.56 263.108C1377.05 263.108 1377.42 263.493 1377.42 263.967Z" fill="#FFF84D" fill-opacity="0.2"/>
<path d="M1228.66 357.412C1228.66 359.125 1227.27 360.514 1225.57 360.514C1223.85 360.514 1222.46 359.125 1222.46 357.412C1222.46 355.698 1223.85 354.31 1225.57 354.31C1227.27 354.31 1228.66 355.698 1228.66 357.412Z" fill="#FFF84D" fill-opacity="0.2"/>
<path d="M1496.08 237.747C1496.08 238.223 1495.69 238.607 1495.22 238.607C1494.74 238.607 1494.36 238.223 1494.36 237.747C1494.36 237.272 1494.74 236.888 1495.22 236.888C1495.69 236.888 1496.08 237.272 1496.08 237.747Z" fill="#FFF84D" fill-opacity="0.2"/>
<path d="M1493.22 387.287C1493.22 387.761 1492.83 388.146 1492.36 388.146C1491.88 388.146 1491.5 387.761 1491.5 387.287C1491.5 386.812 1491.88 386.428 1492.36 386.428C1492.83 386.428 1493.22 386.812 1493.22 387.287Z" fill="#FFF84D" fill-opacity="0.2"/>
<path d="M1291.43 382.645C1291.9 382.739 1292.2 383.192 1292.11 383.657C1292.01 384.123 1291.57 384.425 1291.1 384.332C1290.64 384.239 1290.32 383.787 1290.43 383.32C1290.52 382.854 1290.97 382.552 1291.43 382.645Z" fill="#FFF84D" fill-opacity="0.2"/>
<path d="M1274.05 521.865C1274.51 521.958 1274.82 522.411 1274.72 522.875C1274.63 523.342 1274.17 523.645 1273.72 523.552C1273.24 523.458 1272.95 523.005 1273.03 522.54C1273.14 522.074 1273.58 521.772 1274.05 521.865Z" fill="#FFF84D" fill-opacity="0.2"/>
<path d="M1239.66 310.152C1239.66 310.626 1239.3 311.011 1238.82 311.011C1238.35 311.011 1237.96 310.626 1237.96 310.152C1237.96 309.678 1238.35 309.293 1238.82 309.293C1239.3 309.293 1239.66 309.678 1239.66 310.152Z" fill="#FFF84D" fill-opacity="0.2"/>
<path d="M1294.75 330.659C1294.75 331.133 1294.36 331.518 1293.89 331.518C1293.41 331.518 1293.03 331.133 1293.03 330.659C1293.03 330.183 1293.41 329.8 1293.89 329.8C1294.36 329.8 1294.75 330.183 1294.75 330.659Z" fill="#FFF84D" fill-opacity="0.2"/>
<path d="M1179.21 326.156C1179.21 326.63 1178.83 327.017 1178.35 327.017C1177.88 327.017 1177.49 326.63 1177.49 326.156C1177.49 325.682 1177.88 325.297 1178.35 325.297C1178.83 325.297 1179.21 325.682 1179.21 326.156Z" fill="#FFF84D" fill-opacity="0.2"/>
<path d="M1324.57 471.931C1324.57 472.405 1324.18 472.792 1323.71 472.792C1323.24 472.792 1322.85 472.405 1322.85 471.931C1322.85 471.457 1323.24 471.072 1323.71 471.072C1324.18 471.072 1324.57 471.457 1324.57 471.931Z" fill="#FFF84D" fill-opacity="0.2"/>
<path d="M1499.1 556.76C1499.1 557.236 1498.71 557.619 1498.24 557.619C1497.76 557.619 1497.38 557.236 1497.38 556.76C1497.38 556.288 1497.76 555.901 1498.24 555.901C1498.71 555.901 1499.1 556.288 1499.1 556.76Z" fill="#FFF84D" fill-opacity="0.2"/>
<path d="M1558.37 460.385C1558.37 460.861 1557.99 461.244 1557.51 461.244C1557.04 461.244 1556.65 460.861 1556.65 460.385C1556.65 459.909 1557.04 459.526 1557.51 459.526C1557.99 459.526 1558.37 459.909 1558.37 460.385Z" fill="#FFF84D" fill-opacity="0.2"/>
<path d="M1469.22 565.85C1469.68 565.943 1469.99 566.396 1469.89 566.862C1469.8 567.327 1469.34 567.629 1468.89 567.536C1468.42 567.443 1468.12 566.99 1468.2 566.526C1468.31 566.059 1468.75 565.757 1469.22 565.85Z" fill="#FFF84D" fill-opacity="0.2"/>
<path d="M1233.93 98.2789C1233.93 98.755 1233.54 99.1396 1233.07 99.1396C1232.59 99.1396 1232.21 98.755 1232.21 98.2789C1232.21 97.8047 1232.59 97.4199 1233.07 97.4199C1233.54 97.4199 1233.93 97.8047 1233.93 98.2789Z" fill="#FFF84D" fill-opacity="0.2"/>
<path d="M1192.69 167.683C1192.69 168.158 1192.31 168.542 1191.83 168.542C1191.36 168.542 1190.97 168.158 1190.97 167.683C1190.97 167.209 1191.36 166.825 1191.83 166.825C1192.31 166.825 1192.69 167.209 1192.69 167.683Z" fill="#FFF84D" fill-opacity="0.2"/>
<path d="M1294.5 106.166C1294.5 106.641 1294.11 107.025 1293.64 107.025C1293.17 107.025 1292.78 106.641 1292.78 106.166C1292.78 105.692 1293.17 105.306 1293.64 105.306C1294.11 105.306 1294.5 105.692 1294.5 106.166Z" fill="#FFF84D" fill-opacity="0.2"/>
<path d="M1149.71 100.035C1149.71 100.511 1149.32 100.896 1148.85 100.896C1148.37 100.896 1147.99 100.511 1147.99 100.035C1147.99 99.561 1148.37 99.1763 1148.85 99.1763C1149.32 99.1763 1149.71 99.561 1149.71 100.035Z" fill="#FFF84D" fill-opacity="0.2"/>
<path d="M1336.07 149.126C1336.07 149.981 1335.38 150.677 1334.52 150.677C1333.66 150.677 1332.98 149.981 1332.98 149.126C1332.98 148.268 1333.66 147.575 1334.52 147.575C1335.38 147.575 1336.07 148.268 1336.07 149.126Z" fill="#FFF84D" fill-opacity="0.2"/>
<path d="M1406.56 91.5023C1406.56 91.9766 1406.17 92.3613 1405.7 92.3613C1405.22 92.3613 1404.84 91.9766 1404.84 91.5023C1404.84 91.0281 1405.22 90.6433 1405.7 90.6433C1406.17 90.6433 1406.56 91.0281 1406.56 91.5023Z" fill="#FFF84D" fill-opacity="0.2"/>
<path d="M1417.46 493.358C1417.46 493.83 1417.07 494.217 1416.6 494.217C1416.12 494.217 1415.74 493.83 1415.74 493.358C1415.74 492.882 1416.12 492.497 1416.6 492.497C1417.07 492.497 1417.46 492.882 1417.46 493.358Z" fill="#FFF84D" fill-opacity="0.2"/>
<path d="M1472.52 513.864C1472.52 514.338 1472.15 514.725 1471.68 514.725C1471.19 514.725 1470.82 514.338 1470.82 513.864C1470.82 513.39 1471.19 513.005 1471.68 513.005C1472.15 513.005 1472.52 513.39 1472.52 513.864Z" fill="#FFF84D" fill-opacity="0.2"/>
<path d="M1572.45 384.851C1572.45 385.326 1572.06 385.71 1571.59 385.71C1571.12 385.71 1570.73 385.326 1570.73 384.851C1570.73 384.377 1571.12 383.993 1571.59 383.993C1572.06 383.993 1572.45 384.377 1572.45 384.851Z" fill="#FFF84D" fill-opacity="0.2"/>
<path d="M1357.01 509.362C1357.01 509.835 1356.62 510.221 1356.15 510.221C1355.67 510.221 1355.29 509.835 1355.29 509.362C1355.29 508.886 1355.67 508.503 1356.15 508.503C1356.62 508.503 1357.01 508.886 1357.01 509.362Z" fill="#FFF84D" fill-opacity="0.2"/>
<path d="M1096.91 502.253C1096.91 502.727 1096.52 503.112 1096.05 503.112C1095.57 503.112 1095.19 502.727 1095.19 502.253C1095.19 501.777 1095.57 501.394 1096.05 501.394C1096.52 501.394 1096.91 501.777 1096.91 502.253Z" fill="#FFF84D" fill-opacity="0.2"/>
<path d="M1160.78 496.89C1160.78 497.366 1160.4 497.749 1159.92 497.749C1159.45 497.749 1159.06 497.366 1159.06 496.89C1159.06 496.416 1159.45 496.031 1159.92 496.031C1160.4 496.031 1160.78 496.416 1160.78 496.89Z" fill="#FFF84D" fill-opacity="0.2"/>
<path d="M1059.7 468.962C1059.7 469.82 1059.01 470.515 1058.15 470.515C1057.29 470.515 1056.61 469.82 1056.61 468.962C1056.61 468.107 1057.29 467.411 1058.15 467.411C1059.01 467.411 1059.7 468.107 1059.7 468.962Z" fill="#FFF84D" fill-opacity="0.2"/>
<path d="M1044.92 400.333C1044.92 401.188 1044.21 401.884 1043.37 401.884C1042.51 401.884 1041.81 401.188 1041.81 400.333C1041.81 399.475 1042.51 398.782 1043.37 398.782C1044.21 398.782 1044.92 399.475 1044.92 400.333Z" fill="#FFF84D" fill-opacity="0.2"/>
<path d="M531.125 462.462C531.125 464.174 529.737 465.562 528.026 465.562C526.312 465.562 524.926 464.174 524.926 462.462C524.926 460.747 526.312 459.358 528.026 459.358C529.737 459.358 531.125 460.747 531.125 462.462Z" fill="#FFF84D" fill-opacity="0.2"/>
<path d="M398.056 439.652C398.056 440.509 397.361 441.203 396.504 441.203C395.649 441.203 394.956 440.509 394.956 439.652C394.956 438.795 395.649 438.099 396.504 438.099C397.361 438.099 398.056 438.795 398.056 439.652Z" fill="#FFF84D" fill-opacity="0.2"/>
<path d="M599.915 485.118C599.915 485.973 599.22 486.669 598.363 486.669C597.508 486.669 596.815 485.973 596.815 485.118C596.815 484.261 597.508 483.565 598.363 483.565C599.22 483.565 599.915 484.261 599.915 485.118Z" fill="#FFF84D" fill-opacity="0.2"/>
<path d="M390.173 565.573C390.173 566.43 389.478 567.124 388.621 567.124C387.766 567.124 387.071 566.43 387.071 565.573C387.071 564.717 387.766 564.022 388.621 564.022C389.478 564.022 390.173 564.717 390.173 565.573Z" fill="#FFF84D" fill-opacity="0.2"/>
<path d="M468.332 555.241C468.332 555.717 467.948 556.1 467.474 556.1C467 556.1 466.614 555.717 466.614 555.241C466.614 554.765 467 554.382 467.474 554.382C467.948 554.382 468.332 554.765 468.332 555.241Z" fill="#FFF84D" fill-opacity="0.2"/>
<path d="M557.725 488.536C557.725 489.012 557.339 489.397 556.866 489.397C556.392 489.397 556.008 489.012 556.008 488.536C556.008 488.062 556.392 487.677 556.866 487.677C557.339 487.677 557.725 488.062 557.725 488.536Z" fill="#FFF84D" fill-opacity="0.2"/>
<path d="M542.193 437.895C542.193 438.37 541.81 438.754 541.335 438.754C540.861 438.754 540.477 438.37 540.477 437.895C540.477 437.419 540.861 437.036 541.335 437.036C541.81 437.036 542.193 437.419 542.193 437.895Z" fill="#FFF84D" fill-opacity="0.2"/>
<path d="M438.462 564.331C438.927 564.424 439.229 564.875 439.137 565.341C439.045 565.808 438.592 566.11 438.127 566.017C437.662 565.922 437.36 565.471 437.453 565.005C437.546 564.54 437.997 564.237 438.462 564.331Z" fill="#FFF84D" fill-opacity="0.2"/>
<path d="M386.705 491.835C386.705 492.311 386.321 492.695 385.847 492.695C385.372 492.695 384.987 492.311 384.987 491.835C384.987 491.36 385.372 490.976 385.847 490.976C386.321 490.976 386.705 491.36 386.705 491.835Z" fill="#FFF84D" fill-opacity="0.2"/>
<path d="M441.771 512.343C441.771 512.819 441.386 513.202 440.913 513.202C440.439 513.202 440.055 512.819 440.055 512.343C440.055 511.871 440.439 511.484 440.913 511.484C441.386 511.484 441.771 511.871 441.771 512.343Z" fill="#FFF84D" fill-opacity="0.2"/>
<path d="M568.421 421.74C568.421 422.214 568.037 422.599 567.563 422.599C567.089 422.599 566.705 422.214 566.705 421.74C566.705 421.266 567.089 420.881 567.563 420.881C568.037 420.881 568.421 421.266 568.421 421.74Z" fill="#FFF84D" fill-opacity="0.2"/>
<path d="M1164.89 574.277C1164.89 574.752 1164.5 575.136 1164.03 575.136C1163.56 575.136 1163.17 574.752 1163.17 574.277C1163.17 573.803 1163.56 573.418 1164.03 573.418C1164.5 573.418 1164.89 573.803 1164.89 574.277Z" fill="#FFF84D" fill-opacity="0.2"/>
<path d="M1175.05 549.997C1175.05 550.47 1174.67 550.856 1174.19 550.856C1173.72 550.856 1173.33 550.47 1173.33 549.997C1173.33 549.521 1173.72 549.136 1174.19 549.136C1174.67 549.136 1175.05 549.521 1175.05 549.997Z" fill="#FFF84D" fill-opacity="0.2"/>
<path d="M1581.74 510.292C1581.74 512.006 1580.33 513.396 1578.63 513.396C1576.91 513.396 1575.52 512.006 1575.52 510.292C1575.52 508.579 1576.91 507.191 1578.63 507.191C1580.33 507.191 1581.74 508.579 1581.74 510.292Z" fill="#FFF84D" fill-opacity="0.2"/>
<path d="M1200.1 557.854C1200.1 559.567 1198.71 560.957 1197.01 560.957C1195.29 560.957 1193.91 559.567 1193.91 557.854C1193.91 556.142 1195.29 554.752 1197.01 554.752C1198.71 554.752 1200.1 556.142 1200.1 557.854Z" fill="#FFF84D" fill-opacity="0.2"/>
<path d="M1211.18 533.289C1211.18 533.763 1210.79 534.148 1210.32 534.148C1209.84 534.148 1209.46 533.763 1209.46 533.289C1209.46 532.815 1209.84 532.43 1210.32 532.43C1210.79 532.43 1211.18 532.815 1211.18 533.289Z" fill="#FFF84D" fill-opacity="0.2"/>
<path d="M621.894 577.112C621.894 577.967 621.201 578.663 620.344 578.663C619.488 578.663 618.794 577.967 618.794 577.112C618.794 576.255 619.488 575.559 620.344 575.559C621.201 575.559 621.894 576.255 621.894 577.112Z" fill="#FFF84D" fill-opacity="0.2"/>
<path d="M722.959 582.139C722.959 582.614 722.573 583 722.1 583C721.626 583 721.24 582.614 721.24 582.139C721.24 581.665 721.626 581.279 722.1 581.279C722.573 581.279 722.959 581.665 722.959 582.139Z" fill="#FFF84D" fill-opacity="0.2"/>
<path d="M923.696 575.42C923.696 576.277 923.011 576.971 922.151 576.971C921.291 576.971 920.606 576.277 920.606 575.42C920.606 574.563 921.291 573.869 922.151 573.869C923.011 573.869 923.696 574.563 923.696 575.42Z" fill="#FFF84D" fill-opacity="0.2"/>
</svg>
