<svg width="597" height="267" viewBox="0 0 597 267" fill="none" xmlns="http://www.w3.org/2000/svg">
<path fill-rule="evenodd" clip-rule="evenodd" d="M438.046 170.192C441.743 166.962 449.252 161.077 451.793 158.885C444.053 138.462 460.111 114.462 463.923 107.885L449.945 103.731C435.505 122.077 423.26 140.654 423.26 140.654C423.26 140.654 430.191 117.923 441.859 101.538L427.072 96.9231C414.827 114 404.315 130.962 404.315 130.962L417.831 94.1538L401.543 89.3077C401.543 89.3077 389.298 121.846 384.677 132.346C380.403 142.038 371.046 150.923 370.584 146.077C370.353 143.538 381.096 116.769 381.096 116.769L368.389 111.923C368.389 111.923 352.678 153.808 342.628 151.5C340.202 150.923 358.223 102.462 358.223 102.462L344.592 98.0769C344.592 98.0769 334.195 124.5 327.842 143.654C322.297 157.615 311.9 165.231 311.785 162.462C311.554 153 324.723 120.577 324.723 120.577L311.438 117.231C311.438 117.231 305.2 132.462 300.117 147.923L287.526 151.269C293.533 132.808 299.771 114 299.771 113.885L286.139 109.269L271.931 154.846L265.462 156.231C260.494 169.5 248.249 177 247.325 171.231C246.17 163.962 256.913 149.769 261.419 139.962C267.079 127.615 263.036 122.423 259.339 120.692C240.51 111.808 223.297 149.192 220.294 154.731C217.29 160.269 206.201 181.154 202.735 180.346C199.847 179.654 209.32 157.615 209.32 157.615L199.616 151.038C191.299 165.808 175.819 185.308 173.162 183C175.819 166.269 197.768 142.962 215.673 138L211.399 122.308C211.399 122.308 182.75 127.385 161.842 172.154L161.726 172.269L161.61 172.385V172.5L161.495 172.615V172.731L161.379 172.846V172.962L161.264 173.077L161.148 173.192L161.033 173.308L160.917 173.423V173.538L160.802 173.654V173.769L160.686 173.885L160.571 174L160.455 174.115L160.34 174.231L160.224 174.346L160.109 174.462L159.993 174.577L159.878 174.692L159.762 174.808L159.647 174.923L159.531 175.038L159.416 175.154L159.3 175.269L159.185 175.385L159.069 175.5V175.615L158.954 175.731L158.838 175.846L158.723 175.962L158.607 176.077L158.26 176.538L158.145 176.654L158.029 176.769V176.885L157.914 177L157.798 177.115L157.683 177.231L157.567 177.346L157.452 177.462L157.336 177.577L157.221 177.692L157.105 177.808V178.846L156.99 178.962L156.874 179.077L156.759 179.192L156.528 179.538L156.412 179.654L155.835 180.231L155.719 180.346L155.488 180.692L155.372 180.808L155.257 180.923C151.56 184.846 147.633 188.077 146.362 187.154C144.398 185.769 149.943 159.231 171.314 114.577L155.026 110.308C155.026 110.308 119.562 185.423 113.093 184.038C109.05 179.654 147.517 81 157.914 58.2692L140.24 53.4231C140.24 53.4231 114.248 120.115 84.0975 170.769C50.4816 227.077 30.3813 235.731 24.952 233.308C13.9777 226.731 42.6263 179.192 61.3403 162.462L50.135 151.731C23.9123 170.654 -16.8658 240.231 7.62418 258C29.5727 271.385 80.2854 217.846 104.66 156.808C92.9924 187.038 88.6027 219.923 93.9166 221.192C105.815 223.962 126.839 187.615 132.269 173.308C126.493 192.231 124.067 214.962 129.727 215.077C134.002 215.192 142.781 207.462 150.29 198.692L150.405 198.577L150.521 198.462L150.636 198.346L150.752 198.231L150.867 198.115L150.983 198L151.098 197.885L151.214 197.769L151.329 197.654L151.445 197.538L151.56 197.423L151.676 197.308L151.791 197.192L151.907 197.077L152.022 196.962L152.138 196.846L152.253 196.731L152.369 196.615L152.484 196.5L152.6 196.385L152.716 196.269L152.831 196.154L152.947 196.038L153.062 195.923L153.178 195.808L153.293 195.692L153.409 195.577L153.524 195.462V195.346L153.64 195.231L153.755 195.115L153.871 195L153.986 194.885L154.102 194.769V194.654L154.217 194.538L154.333 194.423L154.448 194.308L154.564 194.192V194.077L154.679 193.962L154.795 193.846L154.91 193.731L155.026 193.615L155.141 193.5V193.385L155.257 193.269L155.372 193.154L155.488 193.038L155.604 192.923L155.719 192.808L155.95 192.462L156.066 192.346L156.181 192.231L156.297 192.115L156.412 192L156.528 191.885L156.643 191.769C154.795 200.423 156.297 210.115 157.567 210C173.278 207.577 185.292 186.577 187.949 182.077C184.945 192.577 185.176 202.038 188.18 203.308C205.161 210.346 228.496 159 228.496 159C236.12 143.308 243.975 134.192 247.094 137.308C248.365 139.038 246.863 142.269 242.127 150.115C237.853 157.038 220.409 181.038 232.654 192.231C241.549 200.308 263.96 183.577 269.505 169.731L262.112 190.846L276.783 188.308C276.783 188.308 279.786 178.962 284.291 165.231L297.345 161.769C296.767 163.962 289.836 188.308 301.041 186.115C307.395 184.846 316.29 177.115 324.03 166.731C322.643 184.962 334.311 178.5 340.318 173.423C344.938 169.615 349.559 163.615 353.371 158.192C351.523 167.192 351.87 173.885 356.837 174.115C363.421 174.462 374.165 162.577 381.558 153.231L376.129 170.192L391.724 167.308C391.724 167.308 399.117 153.231 412.517 137.077C412.517 137.077 406.972 153.231 406.625 164.654L421.296 162.115C421.296 162.115 428.921 148.385 438.277 139.385C433.541 148.5 432.617 162.692 438.046 170.192ZM57.5282 267L594.69 157.5C570.662 151.846 558.648 115.385 569.391 95.0769L558.532 87.6923C549.06 104.885 534.851 125.077 531.963 119.654C531.385 118.5 536.237 108 543.399 98.4231C557.031 80.3077 570.893 76.7308 570.893 76.7308L568.12 59.4231C568.12 59.4231 542.937 69 525.61 99C521.682 105.692 519.256 112.154 516.599 117.346C501.813 146.654 493.611 128.423 491.532 121.615C499.387 111.346 515.328 101.077 515.328 101.077L507.011 90.2308C503.546 92.5385 493.957 101.769 486.911 110.769C492.34 94.1539 497.192 76.9615 497.192 76.9615L482.868 73.9615L457.223 157.269L472.702 154.5C472.702 154.5 476.283 143.077 482.059 132C482.868 135.577 488.413 151.846 497.654 150.923C501.813 150.577 506.78 145.269 512.44 136.038C511.863 142.154 512.325 148.385 513.018 148.038C535.429 142.269 548.598 122.538 550.215 118.385C549.175 130.731 554.143 145.5 559.803 151.731L85.4837 238.269C85.4837 238.269 77.6284 250.846 57.5282 267ZM463.923 87.8077C464.385 88.0385 470.738 67.2692 470.738 67.2692C451.331 65.7692 420.026 75 420.026 75L416.444 85.7308C416.444 85.7308 449.598 81.9231 463.923 87.8077Z" fill="white"/>
<path d="M360.996 59.7692V55.3846H362.728C364.115 55.3846 364.808 56.3077 364.808 57.5769C364.808 58.8462 364.115 59.7692 362.844 59.7692H360.996ZM357.068 63.1154H363.421C366.54 63.1154 368.62 60.8077 368.62 57.6923C368.62 54.5769 366.54 52.1539 363.421 52.1539H360.88V47.1923H356.952V63.1154H357.068ZM370.468 63.1154H374.396V47.1923H370.468V63.1154ZM338.7 63.1154H342.628V56.8846H348.404V63.1154H352.332V47.1923H348.404V53.5385H342.628V47.1923H338.7V63.1154ZM320.564 63.1154H324.492L328.881 55.7308C329.459 54.6923 330.268 52.9615 330.268 52.9615C330.268 52.9615 330.037 54.6923 330.037 55.7308V63.1154H333.964V47.1923H330.037L325.647 54.5769C325.069 55.6154 324.261 57.3462 324.261 57.3462C324.261 57.3462 324.492 55.6154 324.492 54.5769V47.1923H320.564V63.1154ZM300.464 59.7692V66.2308H304.045V63.1154H313.286V66.2308H316.752V59.7692H315.019V47.1923H304.276V51C304.276 53.8846 303.929 57 302.197 59.8846H300.464V59.7692ZM306.124 59.7692C307.395 57.3462 307.857 53.7692 307.857 51.2308V50.5385H311.091V59.7692H306.124ZM286.024 55.0385C286.024 52.3846 287.988 50.4231 290.298 50.4231C292.724 50.4231 294.572 52.3846 294.572 55.0385C294.572 57.8077 292.609 59.7692 290.298 59.7692C287.872 59.7692 286.024 57.6923 286.024 55.0385ZM281.981 55.0385C281.981 59.7692 285.446 63.3462 290.298 63.3462C295.15 63.3462 298.616 59.6539 298.616 55.0385C298.616 50.4231 295.15 46.9615 290.298 46.9615C285.446 46.8462 281.981 50.4231 281.981 55.0385ZM271.469 54.8077V50.5385H273.432C274.703 50.5385 275.396 51.4615 275.396 52.7308C275.396 54 274.703 54.9231 273.317 54.9231H271.469V54.8077ZM267.541 63.1154H271.469V58.1539H274.241C277.36 58.1539 279.439 55.8462 279.439 52.6154C279.439 49.3846 277.36 47.1923 274.241 47.1923H267.657V63.1154H267.541Z" fill="white"/>
<path d="M437.122 42.1154L446.133 46.1538L447.172 43.8461L440.819 40.9615L442.552 37.0385L447.403 39.2308L448.443 36.9231L443.591 34.7308L445.324 30.9231L451.331 33.6923L452.371 31.3846L443.591 27.6923L437.122 42.1154ZM418.177 34.5L429.267 38.8846L428.112 41.7692L430.538 42.6923L432.617 37.5L430.884 36.8077L435.736 24.4615L433.079 23.4231L428.112 35.7692L421.758 33.2308L426.61 20.8846L423.953 19.8462L418.177 34.5ZM398.308 25.9615L396.806 31.3846L399.348 32.0769L400.156 29.0769L410.091 31.8461L409.282 34.8461L411.708 35.5385L413.21 30.1154L411.477 29.6538L415.174 16.8462L405.701 14.1923L404.777 17.5385C403.853 20.6538 402.582 24.1154 399.81 26.4231L398.308 25.9615ZM402.698 27.1154C405.008 25.0385 406.51 21.3461 407.318 18.3461L407.665 17.1923L411.708 18.3461L408.705 28.8461L402.698 27.1154ZM388.604 17.8846L389.76 12.6923L392.417 13.2692C394.034 13.6154 394.727 14.8846 394.38 16.5C394.034 18.1154 392.763 18.9231 391.146 18.5769L388.604 17.8846ZM383.984 24.9231L386.756 25.6154L388.027 20.3077L391.146 21C394.034 21.6923 396.575 20.0769 397.268 17.0769C397.961 14.0769 396.46 11.6538 393.572 10.9615L387.68 9.57692L383.984 24.9231ZM368.389 21.9231L378.092 23.6538L378.554 21.2308L371.739 19.9615L372.432 15.8077L377.63 16.7308L378.092 14.3077L372.894 13.3846L373.587 9.34615L380.056 10.5L380.518 8.07692L371.161 6.46153L368.389 21.9231ZM349.559 11.4231C348.982 16.0385 351.754 19.9615 356.606 20.6538C359.378 21 361.573 20.0769 363.075 18.9231L361.804 16.7308C360.418 17.7692 358.685 18.3461 356.952 18.1154C353.602 17.6538 351.985 14.7692 352.332 11.8846C352.678 9 354.873 6.6923 358.223 7.15384C359.725 7.38461 361.342 8.30769 362.266 9.34615L363.884 7.38461C362.497 5.76923 360.418 4.73077 358.339 4.5C353.949 3.80769 350.137 6.80769 349.559 11.4231ZM322.528 18.1154L332.347 18.3461L332.462 15.9231L325.531 15.6923L325.647 11.4231L330.961 11.5385L331.076 9.11538L325.762 9L325.878 4.84615L332.462 4.96153L332.578 2.53846L322.874 2.30769L322.528 18.1154ZM302.774 10.5C302.659 7.38461 304.969 4.96153 307.857 4.96153C310.745 4.84615 313.171 7.15384 313.171 10.2692C313.286 13.5 310.976 15.9231 308.088 16.0385C305.316 16.1538 302.89 13.7308 302.774 10.5ZM299.886 10.6154C300.002 15.2308 303.583 18.8077 308.319 18.6923C312.94 18.5769 316.405 14.8846 316.29 10.1538C316.174 5.65384 312.593 2.1923 307.857 2.30769C303.121 2.42307 299.771 6.11538 299.886 10.6154ZM281.057 20.8846L283.945 20.5385L283.136 13.9615L290.298 13.0385L291.107 19.6154L293.879 19.2692L291.915 3.57692L289.143 3.92307L289.952 10.6154L282.789 11.5385L281.981 4.84615L279.093 5.1923L281.057 20.8846ZM267.079 20.5385L266.155 15.3462L268.696 14.8846C270.198 14.6538 271.353 15.4615 271.7 17.0769C271.931 18.6923 271.238 19.8461 269.736 20.0769L267.079 20.5385ZM264.653 23.5385L270.545 22.5C273.432 22.0385 275.05 19.6154 274.472 16.6154C273.895 13.5 271.469 11.8846 268.696 12.3461L265.693 12.9231L264.769 7.5L261.996 7.96153L264.653 23.5385ZM244.437 25.5L245.015 28.0385C249.289 26.8846 250.098 22.8461 248.365 15.3462L247.903 13.5L251.946 12.5769L254.949 25.6154L257.722 24.9231L254.141 9.57692L244.553 11.7692L245.477 15.9231C247.094 21.9231 246.632 24.6923 244.437 25.5ZM230.922 25.3846L231.153 20.8846C231.153 19.9615 231.037 18.3461 231.037 18.3461C231.037 18.3461 231.846 19.7308 232.308 20.5385L234.849 24.2308L230.922 25.3846ZM227.918 32.8846L230.691 32.0769L230.922 27.8077L236.235 26.3077L238.661 29.8846L241.434 29.0769L231.73 15.3462L228.842 16.1538L227.918 32.8846ZM218.099 36.6923L220.756 35.6538L215.904 23.3077L220.756 21.4615L219.832 19.1538L207.471 24L208.395 26.3077L213.247 24.4615L218.099 36.6923ZM193.032 38.6538C194.995 42.9231 199.385 44.8846 203.89 42.8077C206.432 41.6538 207.818 39.6923 208.511 37.9615L206.316 36.6923C205.739 38.3077 204.468 39.6923 202.966 40.3846C199.847 41.7692 196.959 40.1538 195.804 37.3846C194.649 34.7308 195.226 31.7308 198.345 30.2308C199.732 29.6538 201.58 29.5385 202.966 30L203.313 27.4615C201.349 26.7692 199.039 27 197.075 27.9231C192.801 29.8846 191.183 34.3846 193.032 38.6538Z" fill="white"/>
<path d="M390.222 58.9615H395.305V57.8077H391.723C391.839 56.3077 395.189 55.9615 395.189 53.4231C395.189 51.9231 394.034 51.1154 392.648 51.1154C391.377 51.1154 390.568 51.8077 390.106 52.6154L391.146 53.3077C391.377 52.8462 391.954 52.3846 392.532 52.3846C393.225 52.3846 393.687 52.7308 393.687 53.4231C393.687 54.9231 390.106 55.3846 390.106 58.1539C390.222 58.5 390.222 58.7308 390.222 58.9615Z" fill="white"/>
<path d="M399.925 55.1538C399.001 55.1538 398.539 54.4615 398.539 53.7692C398.539 53.0769 399.001 52.5 399.694 52.5C400.503 52.5 401.196 53.4231 401.196 54.3462C401.196 54.8077 400.618 55.1538 399.925 55.1538ZM397.499 58.7308C397.961 58.9615 398.539 59.0769 399.117 59.0769C401.543 59.0769 402.698 56.7692 402.698 54.8077C402.698 52.5 401.312 51.1154 399.694 51.1154C398.193 51.1154 397.153 52.2692 397.153 53.6538C397.153 55.0385 398.077 56.1923 399.579 56.1923C400.156 56.1923 400.734 55.9615 400.965 55.6154C400.734 56.6539 400.156 57.6923 398.886 57.6923C398.539 57.6923 398.077 57.5769 397.846 57.4615L397.499 58.7308Z" fill="white"/>
<path d="M239.932 58.9615H244.668V57.8077H243.051V51.3462H241.78L239.817 53.1923L240.625 54.1154L241.203 53.5385C241.434 53.3077 241.549 53.0769 241.549 53.0769C241.549 53.0769 241.549 53.3077 241.549 53.5385V57.8077H239.817V58.9615H239.932Z" fill="white"/>
<path d="M248.943 55.1538C248.018 55.1538 247.556 54.4615 247.556 53.7692C247.556 53.0769 248.018 52.5 248.712 52.5C249.52 52.5 250.213 53.4231 250.213 54.3462C250.213 54.8077 249.636 55.1538 248.943 55.1538ZM246.517 58.7308C246.979 58.9615 247.556 59.0769 248.134 59.0769C250.56 59.0769 251.715 56.7692 251.715 54.8077C251.715 52.5 250.329 51.1154 248.712 51.1154C247.21 51.1154 246.17 52.2692 246.17 53.6538C246.17 55.0385 247.094 56.1923 248.596 56.1923C249.174 56.1923 249.751 55.9615 249.982 55.6154C249.751 56.6539 249.174 57.6923 247.903 57.6923C247.556 57.6923 247.094 57.5769 246.863 57.4615L246.517 58.7308Z" fill="white"/>
<path fill-rule="evenodd" clip-rule="evenodd" d="M586.834 56.6539C590.3 56.6539 593.188 59.5385 593.188 63C593.188 66.4615 590.3 69.3462 586.834 69.3462C583.369 69.3462 580.481 66.4615 580.481 63C580.481 59.4231 583.369 56.6539 586.834 56.6539ZM586.834 55.1539C591.108 55.1539 594.69 58.6154 594.69 63C594.69 67.2692 591.224 70.8462 586.834 70.8462C582.56 70.8462 578.979 67.3846 578.979 63C578.979 58.6154 582.56 55.1539 586.834 55.1539Z" fill="white"/>
<path d="M585.333 62.4231H586.372C587.065 62.4231 587.527 62.4231 587.643 62.3077C587.758 62.1923 587.989 62.1923 588.105 61.9615C588.221 61.8462 588.221 61.6154 588.221 61.3846C588.221 61.1539 588.105 60.9231 587.989 60.8077C587.874 60.6923 587.643 60.5769 587.412 60.5769C587.296 60.5769 586.95 60.5769 586.372 60.5769H585.217V62.4231H585.333ZM583.831 66.5769V59.4231H586.95C587.758 59.4231 588.336 59.5385 588.683 59.6539C589.029 59.7692 589.26 60 589.491 60.3462C589.722 60.6923 589.838 61.0385 589.838 61.5C589.838 62.0769 589.722 62.5385 589.376 62.8846C589.029 63.2308 588.567 63.4615 587.989 63.5769C588.336 63.8077 588.567 63.9231 588.798 64.1538C589.029 64.3846 589.26 64.7308 589.607 65.3077L590.531 66.6923H588.798L587.758 65.0769C587.412 64.5 587.181 64.1538 586.95 64.0385C586.834 63.9231 586.719 63.8077 586.488 63.6923C586.372 63.6923 586.141 63.5769 585.795 63.5769H585.448V66.5769H583.831Z" fill="white"/>
</svg>
